<svg width="74" height="70" viewBox="0 0 74 70" fill="none" xmlns="http://www.w3.org/2000/svg">
<circle cx="37" cy="35" r="35" fill="#00E1D4"/>
<circle cx="37" cy="35" r="24" fill="white"/>
<path d="M6.14229 35.4164C5.02533 35.217 5.05101 33.6061 6.17375 33.4424L22.1124 31.1188C22.7221 31.0299 23.2664 31.5082 23.2565 32.1243L23.1744 37.2781C23.1646 37.8942 22.6054 38.3549 21.9988 38.2466L6.14229 35.4164Z" fill="white"/>
<path d="M67.8243 33.5751C68.9426 33.767 68.9276 35.3781 67.806 35.5493L51.8832 37.9791C51.2741 38.0721 50.7267 37.5974 50.7324 36.9813L50.7801 31.827C50.7858 31.2109 51.342 30.7465 51.9492 30.8507L67.8243 33.5751Z" fill="white"/>
<circle cx="37" cy="35" r="21" fill="#0011AB"/>
</svg>
